<svg preserveAspectRatio="none" overflow="visible" style="display: block;" width="1810.31" height="568.211" viewBox="0 0 1810.31 568.211" fill="none" xmlns="http://www.w3.org/2000/svg">
<g id="Vector">
<path d="M1443.88 568.211H1500.7V296.433L1443.88 296.514V568.211Z" fill="#F4F3F3"/>
<path d="M274.874 296.433V568.211H220.331V387.214L136.857 519.323H119.169L54.5426 415.718V568.211H0V296.433H54.8227L136.857 427.86L220.051 296.433H274.874Z" fill="#F4F3F3"/>
<path d="M792.129 296.433L739.267 392.199L686.445 296.433H617.376L706.493 457.892V568.211H760.956V457.892L850.073 296.433H792.129Z" fill="#F4F3F3"/>
<path d="M1224.27 296.433L1117.54 568.211H1174.17L1192.57 521.374H1306.58L1324.99 568.211H1395.66L1288.93 296.433H1224.27ZM1209.7 477.471L1249.48 375.957L1289.33 477.471H1209.66H1209.7Z" fill="#F4F3F3"/>
<path d="M1130.47 351.03L1110.14 296.433H916.221V568.211H970.723V467.943H1072.09V424.04H970.723V351.03H1130.47Z" fill="#F4F3F3"/>
<path d="M1810.31 382.269C1810.31 298.002 1707.51 296.515 1707.51 296.515H1585.06V568.172H1639.52V464.607H1676.13L1739.4 568.172H1810.07L1744.04 460.104C1773.5 454.516 1810.27 435.218 1810.27 382.229L1810.31 382.269ZM1639.52 351.031H1707.51C1736.52 351.031 1752.89 366.188 1752.89 385.888C1752.89 405.588 1743.08 420.744 1707.51 420.744H1639.52V351.031Z" fill="#F4F3F3"/>
<path d="M442.064 296.433L335.339 568.211H391.963L410.37 521.374H524.378L542.785 568.211H613.455L506.73 296.433H442.064ZM427.457 477.471L467.234 375.957L507.09 477.471H427.417H427.457Z" fill="#F4F3F3"/>
<path d="M674.348 147.208C673.828 199.988 641.848 198.168 627.288 190.888C610.128 182.308 598.688 155.008 598.168 121.468C597.388 79.6078 607.788 27.3478 616.368 7.06778C618.448 2.38778 621.568 0.307775 623.648 0.0477785C624.948 -0.212218 625.468 0.567772 624.688 2.90777C616.368 30.9878 609.348 82.9878 610.128 117.048C610.908 153.188 617.148 177.368 630.928 185.428C643.928 192.968 661.348 180.488 666.028 130.828C669.668 92.0878 666.548 68.1678 669.408 48.1478C670.448 41.3878 673.048 38.5278 676.688 37.2278C678.508 36.4478 679.548 36.4478 679.288 39.8278C676.948 71.2878 678.248 97.5478 680.848 124.848C685.528 172.428 703.208 182.568 716.988 177.628C731.548 172.428 738.828 147.988 739.348 113.668C739.868 81.1678 734.148 35.1478 724.268 3.94777C723.748 2.12778 724.008 1.34778 725.308 1.60777C727.388 2.12778 730.248 3.94777 732.068 8.62778C741.428 32.2878 751.048 80.3878 749.748 117.568C748.708 149.548 739.348 176.848 718.808 183.608C705.548 187.768 682.928 183.088 674.348 147.208Z" fill="#82B1DD"/>
<path d="M771.369 150.068C791.129 145.908 794.509 110.288 788.009 108.468C783.069 107.168 773.449 121.468 771.629 141.228C771.369 144.348 771.109 147.468 771.369 150.068ZM771.629 154.488C772.669 164.108 776.049 170.348 779.689 171.648C789.309 175.028 804.649 165.668 810.369 147.208C810.889 145.648 811.929 145.648 812.189 146.948C812.709 149.028 812.709 151.108 812.189 154.488C808.549 173.468 793.469 183.348 777.609 177.108C769.289 173.728 757.069 159.948 761.489 135.248C766.429 107.168 780.989 96.2478 791.129 103.528C799.449 109.508 801.529 118.868 798.929 130.048C795.289 145.388 782.289 153.708 771.629 154.488Z" fill="#82B1DD"/>
<path d="M817.87 126.148C835.29 98.8478 835.03 40.3478 830.35 38.0078C826.45 35.9278 819.95 68.1678 818.39 100.148C817.87 109.768 817.87 118.348 817.87 126.148ZM818.13 133.428C819.43 157.868 824.11 170.868 829.57 172.688C836.33 175.028 845.69 163.588 850.37 146.948C850.63 145.908 851.67 145.908 851.93 146.428C853.23 149.028 852.71 152.408 852.45 155.788C851.41 166.188 844.65 184.128 829.05 179.708C813.97 175.548 805.13 152.148 807.21 104.828C809.03 65.3078 819.69 12.2678 835.03 31.5078C850.37 50.7478 839.19 114.448 818.13 133.428Z" fill="#82B1DD"/>
<path d="M897.767 146.948C898.807 149.288 898.287 152.408 897.507 156.308C894.127 171.908 882.687 184.128 866.307 179.708C854.087 176.328 844.207 164.368 846.547 138.368C849.407 107.948 864.487 94.6878 875.147 101.448C881.127 105.088 885.547 111.328 885.547 118.868C885.547 128.748 880.087 134.208 875.927 134.468C874.367 134.468 874.107 134.468 874.367 133.428C879.047 120.428 876.967 106.648 872.547 106.128C867.087 105.348 857.727 123.548 856.947 144.348C856.427 159.428 859.807 170.088 865.527 172.948C876.967 178.668 891.267 161.768 895.688 147.468C896.208 145.908 897.247 145.648 897.767 146.948Z" fill="#82B1DD"/>
<path d="M1039.89 152.928C1039.89 172.948 1031.83 178.408 1026.11 177.888C1020.91 177.368 1015.97 175.808 1011.55 169.308C1002.71 156.048 1006.35 130.568 1006.09 112.368C1006.09 110.548 1005.57 110.288 1004.79 112.108C999.594 124.848 993.874 142.788 992.834 172.948C992.834 174.768 992.314 175.288 990.494 175.028C985.814 174.508 981.134 172.948 980.354 164.628C978.794 149.028 978.794 129.268 977.494 118.868C976.974 114.968 975.674 115.748 974.894 117.568C968.394 131.868 961.634 151.628 960.334 177.628C960.334 179.448 959.554 179.968 957.474 179.448C953.314 178.408 949.154 176.328 948.634 172.168C947.074 160.988 947.594 142.528 948.634 126.668C946.294 131.608 942.654 136.028 936.934 138.368C939.534 167.748 926.534 182.828 911.454 177.628C900.534 173.988 890.914 161.248 894.034 137.068C896.114 121.468 903.394 108.208 910.674 104.308C912.234 103.528 914.834 103.268 917.694 106.388C924.714 105.088 933.294 114.188 936.154 130.568C944.994 126.668 949.674 115.228 951.234 103.268C951.754 100.928 953.574 96.5078 958.514 94.4278C960.074 93.6478 960.594 94.6878 960.334 95.9878C958.514 108.728 957.214 129.528 957.214 151.368C960.854 133.428 967.614 117.048 973.594 107.688C976.974 102.488 979.834 100.928 983.734 105.088C987.894 109.508 988.674 115.748 989.194 120.948C989.714 126.668 989.454 134.988 989.454 143.048C992.314 127.188 998.294 110.548 1002.97 102.228C1005.83 97.0278 1008.95 95.7278 1012.85 99.6278C1017.79 104.568 1018.83 111.328 1018.31 117.568C1017.01 136.028 1014.67 167.748 1023.25 170.868C1028.71 172.948 1035.21 159.688 1036.25 146.168C1036.25 144.868 1037.03 144.608 1038.07 145.648C1039.11 146.688 1039.89 149.808 1039.89 152.928ZM918.214 111.328C913.534 110.808 916.394 130.308 927.574 131.868C926.274 120.948 922.634 111.848 918.214 111.328ZM928.094 140.188C917.174 140.188 910.674 131.088 909.634 121.468C907.294 126.928 905.214 134.208 904.434 142.528C902.614 162.288 910.674 172.168 914.314 172.948C921.334 174.508 928.354 160.208 928.094 140.188Z" fill="#82B1DD"/>
<path d="M1043.56 150.068C1063.32 145.908 1066.7 110.288 1060.2 108.468C1055.26 107.168 1045.64 121.468 1043.82 141.228C1043.56 144.348 1043.3 147.468 1043.56 150.068ZM1043.82 154.488C1044.86 164.108 1048.24 170.348 1051.88 171.648C1061.5 175.028 1076.84 165.668 1082.56 147.208C1083.08 145.648 1084.12 145.648 1084.38 146.948C1084.9 149.028 1084.9 151.108 1084.38 154.488C1080.74 173.468 1065.66 183.348 1049.8 177.108C1041.48 173.728 1029.26 159.948 1033.68 135.248C1038.62 107.168 1053.18 96.2478 1063.32 103.528C1071.64 109.508 1073.72 118.868 1071.12 130.048C1067.48 145.388 1054.48 153.708 1043.82 154.488Z" fill="#82B1DD"/>
<path d="M1143.48 85.0678C1137.24 85.5878 1130.74 86.3678 1124.24 87.6678C1122.42 87.9278 1122.16 86.8878 1122.68 85.8478C1123.2 82.7278 1126.06 79.6078 1130.48 79.0878C1134.9 78.5678 1139.58 78.3078 1144.52 78.0478C1146.34 68.9478 1148.16 61.1478 1149.72 55.6878C1150.76 52.5678 1153.1 50.2278 1155.44 49.4478C1156.74 48.9278 1157 49.4478 1156.74 51.0078C1155.44 57.5078 1154.14 66.8678 1152.84 77.5278C1166.62 77.2678 1181.18 77.7878 1194.7 79.8678C1195.74 80.1278 1195.74 80.6478 1195.22 81.4278C1193.66 83.5078 1191.06 85.0678 1187.68 84.8078C1176.24 84.0278 1164.54 83.7678 1152.06 84.2878C1150.5 98.8478 1149.46 114.188 1149.2 127.448C1148.68 151.368 1150.5 169.568 1156.22 171.908C1160.9 173.988 1169.22 165.928 1172.6 148.768C1172.6 147.468 1173.64 147.468 1173.9 148.248C1174.94 149.288 1175.46 151.368 1175.46 154.748C1174.94 168.528 1169.22 181.788 1155.96 178.668C1140.88 175.028 1138.28 158.388 1139.06 129.268C1139.58 115.228 1141.14 99.1078 1143.48 85.0678Z" fill="#82B1DD"/>
<path d="M1213.19 136.808C1215.79 166.968 1202.79 182.828 1187.71 177.628C1176.27 173.728 1167.17 161.248 1170.03 137.068C1171.85 122.768 1179.39 108.208 1186.67 104.308C1188.23 103.528 1191.09 103.268 1193.69 106.388C1200.45 105.088 1209.03 113.928 1212.15 130.308C1213.45 129.268 1214.75 128.488 1215.79 127.448C1217.09 126.148 1217.61 126.668 1217.61 127.708C1217.61 130.308 1216.05 133.948 1213.19 136.808ZM1194.21 111.328C1189.27 110.808 1192.65 130.568 1203.57 132.128C1202.27 120.948 1198.63 111.848 1194.21 111.328ZM1204.09 140.188C1192.91 140.448 1186.67 130.828 1185.89 121.468C1183.29 126.928 1181.47 134.208 1180.69 142.528C1178.87 162.288 1186.67 172.168 1190.31 172.948C1197.33 174.508 1204.61 160.208 1204.09 140.188Z" fill="#82B1DD"/>
</g>
</svg>
